#!OML:ASF F:\twosubjects\two\wednesday\Session 1\rory1.ASF
:FULLY-SPECIFIED
:DEGREES
50
root 18.5803 18.6971 11.471 -175.978 -20.5744 -184.423
lowerback -1.03948 0.759428 -2.13582
upperback -0.725407 1.01365 -0.599861
thorax -0.186613 0.506488 0.591006
lowerneck -14.282 -0.509889 -1.88896
upperneck 17.8441 0.387864 -5.16544
head 7.89223 -0.609338 -1.37754
rclavicle -1.78285e-015 1.59028e-015
rhumerus 32.2676 -4.78368 -51.0612
rradius 29.7578
rwrist 10.6169
rhand 1.95705 35.2888
rfingers 7.12502
rthumb 27.4635 7.27113
lclavicle -1.78285e-015 1.59028e-015
lhumerus 41.9822 -30.3005 51.2142
lradius 30.621
lwrist 0.145978
lhand -20.4179 6.07363
lfingers 7.12502
lthumb 5.93638 35.9705
rfemur -20.653 4.8431 12.9989
rtibia 28.959
rfoot -7.83143 -21.0406
rtoes 23.3836
lfemur -0.588879 -8.88472 -11.0234
ltibia 40.3885
lfoot 25.1107 -13.7356
ltoes -14.9619
51
root 18.6168 18.7062 11.3252 -176.289 -20.826 -184.116
lowerback -0.785023 0.777773 -1.72164
upperback -0.803204 1.03242 -0.364233
thorax -0.406055 0.518784 0.595849
lowerneck -13.775 -0.426156 -2.02731
upperneck 17.8336 0.480779 -5.08894
head 7.79972 -0.567534 -1.31612
rclavicle 5.60091e-015 7.15625e-015
rhumerus 31.8213 -3.53685 -50.2476
rradius 29.6083
rwrist 9.84391
rhand 2.20216 35.1145
rfingers 7.12502
rthumb 27.6979 7.13423
lclavicle 5.60091e-015 7.15625e-015
lhumerus 41.8919 -30.3634 51.4783
lradius 30.5929
lwrist -0.145757
lhand -22.1893 6.41233
lfingers 7.12502
lthumb 4.22596 36.3502
rfemur -19.8436 4.75701 13.6943
rtibia 28.8658
rfoot -8.24434 -20.9529
rtoes 23.3074
lfemur -1.74765 -9.0859 -10.5338
ltibia 42.3609
lfoot 23.6027 -13.9182
ltoes -18.2465
52
root 18.637 18.7213 11.1812 -176.297 -20.9639 -184.041
lowerback -0.861583 0.888311 -1.20981
upperback -0.989976 1.17475 -0.359115
thorax -0.547204 0.587906 0.314443
lowerneck -13.02 -0.441048 -2.06407
upperneck 17.8065 0.393955 -4.9865
head 7.65344 -0.599485 -1.28036
rclavicle -6.78291e-014 -9.54166e-015
rhumerus 31.4964 -3.45315 -50.7817
rradius 29.0691
rwrist 9.95131
rhand 2.43249 35.3259
rfingers 7.12502
rthumb 27.9181 7.38127
lclavicle -6.78291e-014 -9.54166e-015
lhumerus 41.9913 -30.8584 51.2466
lradius 30.7822
lwrist -0.0787029
lhand -14.1064 13.041
lfingers 7.12502
lthumb 12.0265 42.6754
rfemur -19.2809 4.27408 14.0966
rtibia 28.7223
rfoot -8.26678 -20.5103
rtoes 22.2012
lfemur -3.09517 -9.21435 -10.3912
ltibia 44.1514
lfoot 22.112 -13.568
ltoes -16.707
53
root 18.6612 18.7385 11.0388 -176.55 -21.0779 -183.773
lowerback -0.899734 1.03045 -0.569967
upperback -0.938879 1.36451 -0.314077
thorax -0.462176 0.679607 0.00444339
lowerneck -13.0193 -0.501225 -1.99189
upperneck 18.0658 0.30124 -5.01983
head 7.73713 -0.653265 -1.31678
rclavicle -2.15309e-014 3.18055e-015
rhumerus 30.588 -1.86647 -49.541
rradius 29.6192
rwrist 7.72881
rhand 2.1657 34.5239
rfingers 7.12502
rthumb 27.663 6.53801
lclavicle -2.15309e-014 3.18055e-015
lhumerus 42.3336 -30.8384 51.3104
lradius 30.8427
lwrist -0.486021
lhand -9.4503 14.9578
lfingers 7.12502
lthumb 16.5129 44.2751
rfemur -18.4993 3.98459 14.7102
rtibia 28.503
rfoot -8.30202 -20.2563
rtoes 21.4093
lfemur -4.18954 -9.18513 -9.99412
ltibia 45.7517
lfoot 20.8604 -12.9908
ltoes -15.7493
54
root 18.692 18.7504 10.8983 -177 -20.9143 -183.322
lowerback -0.737894 1.24924 0.104881
upperback -0.74538 1.65815 -0.181551
thorax -0.340801 0.82529 -0.237265
lowerneck -13.5837 -0.554176 -1.87556
upperneck 18.4738 0.262049 -5.11671
head 7.97322 -0.691021 -1.38256
rclavicle 9.88643e-015 0
rhumerus 30.6217 -2.3763 -50.1451
rradius 29.3231
rwrist 9.07558
rhand 2.52458 34.6866
rfingers 7.12502
rthumb 28.0062 6.75631
lclavicle 9.88643e-015 0
lhumerus 42.7239 -30.4974 51.5909
lradius 30.9012
lwrist -0.905907
lhand -7.9957 14.5566
lfingers 7.12502
lthumb 17.913 43.7517
rfemur -17.5962 4.09057 15.5045
rtibia 28.2298
rfoot -8.35662 -20.0011
rtoes 20.8183
lfemur -5.04388 -8.77561 -9.37769
ltibia 47.2454
lfoot 19.7366 -12.7213
ltoes -12.5328
55
root 18.7199 18.7674 10.7537 -177.483 -20.4927 -183.037
lowerback -0.466231 1.57261 0.611728
upperback -0.616909 2.09113 -0.120783
thorax -0.343607 1.04103 -0.462276
lowerneck -13.893 -0.566984 -1.6996
upperneck 18.9515 0.227323 -5.11286
head 8.18705 -0.714044 -1.42429
rclavicle 2.14874e-014 -1.15295e-014
rhumerus 30.749 -3.50136 -51.2701
rradius 28.5992
rwrist 11.3515
rhand 3.43775 35.3059
rfingers 7.12502
rthumb 28.8788 7.52135
lclavicle 2.14874e-014 -1.15295e-014
lhumerus 43.1674 -30.6056 51.5124
lradius 31.0329
lwrist -0.860718
lhand -8.57013 13.8268
lfingers 7.12502
lthumb 17.3602 43.0715
rfemur -16.5576 4.37601 16.1136
rtibia 27.8785
rfoot -8.48055 -19.6391
rtoes 20.9
lfemur -5.69508 -8.18034 -9.02244
ltibia 48.5761
lfoot 18.084 -12.8828
ltoes -12.8212
56
root 18.7633 18.7787 10.6352 -177.386 -20.6964 -183.059
lowerback -0.200237 1.60139 0.688801
upperback -0.84048 2.13029 -0.0574503
thorax -0.720523 1.05747 -0.453065
lowerneck -13.7325 -0.485863 -1.65294
upperneck 19.301 0.313847 -5.1229
head 8.27678 -0.68816 -1.4311
rclavicle -3.63403e-015 3.97569e-015
rhumerus 30.8039 -4.32672 -52.3975
rradius 27.9257
rwrist 13.4473
rhand 4.28532 35.3196
rfingers 7.12502
rthumb 29.6881 7.67633
lclavicle -3.63403e-015 3.97569e-015
lhumerus 43.1469 -30.6834 51.6017
lradius 31.2071
lwrist -0.778686
lhand -9.74103 12.5346
lfingers 7.12502
lthumb 16.233 41.875
rfemur -16.0121 4.12542 16.4115
rtibia 27.521
rfoot -8.85951 -19.4188
rtoes 21.7597
lfemur -7.18796 -7.97137 -8.77932
ltibia 49.7789
lfoot 16.3826 -12.9671
ltoes -15.0143
57
root 18.7902 18.7867 10.504 -177.213 -20.1222 -182.993
lowerback -0.287748 1.79447 0.970192
upperback -1.02492 2.38524 -0.0121935
thorax -0.847627 1.18036 -0.565516
lowerneck -13.4998 -0.407785 -1.67372
upperneck 19.3904 0.405385 -5.12134
head 8.26643 -0.652374 -1.41733
rclavicle 4.00675e-015 -1.07344e-014
rhumerus 30.9353 -4.84169 -53.603
rradius 27.4221
rwrist 15.2809
rhand 4.48215 35.0657
rfingers 7.12502
rthumb 29.8759 7.45599
lclavicle 4.00675e-015 -1.07344e-014
lhumerus 42.8658 -30.4835 51.7083
lradius 31.5148
lwrist -0.661027
lhand -10.2386 12.5484
lfingers 7.12502
lthumb 15.7539 41.9273
rfemur -15.7182 4.11911 16.7562
rtibia 27.205
rfoot -9.02627 -18.7479
rtoes 21.3527
lfemur -8.39306 -7.12449 -8.58333
ltibia 50.7242
lfoot 14.7297 -12.5219
ltoes -16.2486
58
root 18.8132 18.7963 10.3572 -177.211 -19.3859 -183.04
lowerback -0.464429 2.07026 1.11
upperback -1.00241 2.75022 -0.0283329
thorax -0.712284 1.36233 -0.653283
lowerneck -13.5544 -0.395663 -1.55851
upperneck 19.5175 0.409158 -5.16821
head 8.31898 -0.652564 -1.4544
rclavicle 4.15957e-014 5.1684e-015
rhumerus 31.1766 -5.40387 -54.7733
rradius 26.8255
rwrist 16.5195
rhand 4.27449 35.5368
rfingers 7.12502
rthumb 29.6777 7.8917
lclavicle 4.15957e-014 5.1684e-015
lhumerus 43.0082 -30.4066 51.3293
lradius 31.9022
lwrist -0.212023
lhand -10.3306 12.9602
lfingers 7.12502
lthumb 15.6653 42.346
rfemur -15.2426 4.28709 16.9904
rtibia 26.9702
rfoot -9.12435 -18.1902
rtoes 20.0711
lfemur -9.15824 -6.25735 -8.63681
ltibia 51.4094
lfoot 13.3061 -11.7773
ltoes -16.1134
59
root 18.8383 18.8051 10.2103 -177.333 -19.0538 -183.512
lowerback -0.432324 2.23507 0.801468
upperback -0.868302 2.97174 -0.127015
thorax -0.599093 1.47704 -0.579957
lowerneck -13.7117 -0.354711 -1.42332
upperneck 19.7724 0.451663 -5.19984
head 8.43422 -0.636817 -1.48844
rclavicle 5.83309e-014 0
rhumerus 31.2304 -5.58079 -55.3461
rradius 26.4732
rwrist 16.8833
rhand 4.07749 36.2543
rfingers 7.12502
rthumb 29.4897 8.57583
lclavicle 5.83309e-014 0
lhumerus 43.3358 -30.3935 50.9094
lradius 32.2578
lwrist 0.350776
lhand -9.81655 12.569
lfingers 7.12502
lthumb 16.1603 41.9154
rfemur -14.3896 4.27641 16.8002
rtibia 26.739
rfoot -9.4106 -17.9049
rtoes 18.8919
lfemur -9.65745 -5.88357 -9.18832
ltibia 51.8445
lfoot 12.0622 -11.1685
ltoes -16.1559
60
root 18.8639 18.8131 10.065 -177.308 -18.6464 -183.845
lowerback -0.520716 2.37461 0.613665
upperback -0.901422 3.15629 -0.157421
thorax -0.589027 1.56995 -0.50318
lowerneck -13.4692 -0.190003 -1.38098
upperneck 19.9239 0.641724 -5.15794
head 8.44485 -0.548153 -1.46168
rclavicle -8.16881e-014 1.11319e-014
rhumerus 31.0285 -5.07067 -55.4747
rradius 26.3948
rwrist 16.6214
rhand 3.74031 36.0524
rfingers 7.12502
rthumb 29.1677 8.31762
lclavicle -8.16881e-014 1.11319e-014
lhumerus 43.3081 -30.2841 50.7858
lradius 32.5375
lwrist 0.56246
lhand -9.6148 12.4293
lfingers 7.12502
lthumb 16.3546 41.7598
rfemur -13.7482 4.29051 16.7307
rtibia 26.4991
rfoot -9.65688 -17.5489
rtoes 17.6662
lfemur -10.3106 -5.40523 -9.54696
ltibia 52.1182
lfoot 10.9693 -10.8533
ltoes -16.5722
61
root 18.892 18.8203 9.92279 -177.14 -17.9941 -183.835
lowerback -0.805194 2.55568 0.683939
upperback -0.964143 3.39345 -0.115305
thorax -0.48947 1.68742 -0.486675
lowerneck -13.4587 -0.0221696 -1.23929
upperneck 20.1043 0.855616 -5.24377
head 8.50927 -0.45577 -1.49389
rclavicle -3.37064e-014 -1.19271e-014
rhumerus 31.4193 -5.56776 -56.7314
rradius 25.7867
rwrist 17.6235
rhand 3.33742 35.7177
rfingers 7.12502
rthumb 28.7829 7.91679
lclavicle -3.37064e-014 -1.19271e-014
lhumerus 43.472 -30.1551 50.2568
lradius 32.8657
lwrist 0.968873
lhand -10.0395 13.0016
lfingers 7.12502
lthumb 15.9456 42.3652
rfemur -13.4379 4.48545 16.988
rtibia 26.2857
rfoot -9.46204 -17.0753
rtoes 16.0739
lfemur -11.2023 -4.73677 -9.51628
ltibia 52.2954
lfoot 10.1209 -10.3254
ltoes -15.3567
62
root 18.9215 18.83 9.7853 -177.021 -17.3951 -183.747
lowerback -1.01561 2.74417 0.819178
upperback -0.973526 3.64105 -0.09372
thorax -0.371136 1.8104 -0.527487
lowerneck -13.7251 0.0198347 -1.19797
upperneck 20.3504 0.900458 -5.13764
head 8.64194 -0.43015 -1.46528
rclavicle 6.92392e-014 1.66979e-014
rhumerus 31.563 -5.90665 -57.644
rradius 25.566
rwrist 18.0398
rhand 3.1736 35.8639
rfingers 7.12502
rthumb 28.6264 8.03648
lclavicle 6.92392e-014 1.66979e-014
lhumerus 43.8006 -30.0278 49.6345
lradius 33.2184
lwrist 1.54343
lhand -11.019 14.4795
lfingers 7.12502
lthumb 15.0022 43.9161
rfemur -13.1182 4.86606 17.3055
rtibia 26.138
rfoot -9.29132 -16.6938
rtoes 15.8675
lfemur -12.1177 -4.16677 -9.41128
ltibia 52.3555
lfoot 9.50939 -9.77167
ltoes -13.406
63
root 18.9509 18.8357 9.64906 -176.961 -16.9202 -183.792
lowerback -1.12322 2.89593 0.849592
upperback -1.0684 3.83998 -0.110071
thorax -0.402027 1.9081 -0.556426
lowerneck -13.7313 0.0535552 -1.25257
upperneck 20.664 0.893377 -4.83271
head 8.74725 -0.417989 -1.3588
rclavicle -1.53064e-014 3.97569e-015
rhumerus 30.8814 -4.93858 -57.2773
rradius 26.1107
rwrist 16.8049
rhand 3.11991 35.8551
rfingers 7.12502
rthumb 28.5751 8.0191
lclavicle -1.53064e-014 3.97569e-015
lhumerus 43.9416 -29.9802 49.1563
lradius 33.3827
lwrist 1.65901
lhand -11.8942 15.2697
lfingers 7.12502
lthumb 14.159 44.7672
rfemur -12.7584 5.05898 17.5011
rtibia 26.0849
rfoot -9.43422 -16.3583
rtoes 15.5269
lfemur -12.9314 -3.66464 -9.44992
ltibia 52.2608
lfoot 8.84873 -9.66032
ltoes -13.7943
64
root 18.9795 18.8334 9.51427 -177.037 -16.4073 -183.894
lowerback -1.08319 3.014 0.860777
upperback -1.10725 3.99708 -0.164445
thorax -0.457122 1.98572 -0.620158
lowerneck -13.8223 0.080695 -1.1198
upperneck 21.0105 0.881894 -4.74938
head 8.88158 -0.419493 -1.36041
rclavicle -3.59552e-014 5.56597e-015
rhumerus 30.5028 -4.18189 -57.3
rradius 26.3851
rwrist 16.0673
rhand 3.00179 35.5769
rfingers 7.12502
rthumb 28.4623 7.72191
lclavicle -3.59552e-014 5.56597e-015
lhumerus 44.2233 -29.9044 48.4887
lradius 33.3631
lwrist 1.55997
lhand -12.0223 14.7674
lfingers 7.12502
lthumb 14.0355 44.2735
rfemur -12.2827 5.13935 17.6631
rtibia 26.1033
rfoot -9.76709 -16.0245
rtoes 14.5496
lfemur -13.496 -3.23971 -9.57773
ltibia 52.0425
lfoot 8.04022 -9.59412
ltoes -14.6823
